<svg width="45" height="45" viewBox="0 0 45 45" fill="none" xmlns="http://www.w3.org/2000/svg">
<g clip-path="url(#clip0)">
<path d="M43.7045 33.7342L37.2005 27.2274C36.3271 26.3584 35.1575 25.8796 33.9076 25.8796C32.6069 25.8796 31.3788 26.3918 30.4503 27.3209L27.9185 29.8521C25.9512 28.7586 23.3364 27.2546 20.6217 24.5399C17.9101 21.8273 16.4059 19.2202 15.3068 17.2423L17.841 14.71C19.7251 12.8219 19.7637 9.79297 17.9272 7.95819L11.4245 1.45532C10.5535 0.581863 9.38386 0.10083 8.13083 0.10083C6.85918 0.10083 5.65622 0.590426 4.73307 1.48156C4.17459 1.93132 1.37198 4.40536 0.327448 9.50759C-1.13501 16.6492 2.22514 23.5204 11.9255 33.2247C22.7616 44.0574 32.0123 44.8994 34.5895 44.8994C35.126 44.8994 35.4497 44.8663 35.5361 44.8562C40.5897 44.2639 42.3992 42.0195 43.7204 40.3808C45.4323 38.2569 45.4263 35.4623 43.7045 33.7342ZM41.5464 38.6281C40.3045 40.1684 39.1317 41.623 35.2113 42.0826C35.2092 42.0828 34.9948 42.1068 34.5895 42.1068C32.2837 42.1068 23.977 41.3239 13.9001 31.2501C4.95459 22.3009 1.81485 16.1639 3.06304 10.0675C3.9741 5.61725 6.39285 3.7257 6.48686 3.65384L6.57026 3.59223L6.64342 3.51888C7.0472 3.11547 7.57533 2.8932 8.13064 2.8932C8.63624 2.8932 9.10387 3.08271 9.44864 3.42859L15.9528 9.93296C16.7012 10.6806 16.6613 11.9386 15.8651 12.7365L12.9992 15.6L12.9521 15.6493C12.2053 16.4719 12.2931 17.5837 12.7045 18.3077C13.8917 20.45 15.5178 23.384 18.6467 26.5139C21.7652 29.6324 24.695 31.2572 26.8313 32.4421C27.0452 32.5621 27.4868 32.7636 28.0395 32.7636C28.6922 32.7636 29.2914 32.4873 29.735 31.9838L32.4246 29.2949C32.8262 28.8932 33.3526 28.6718 33.9072 28.6718C34.4139 28.6718 34.884 28.8619 35.228 29.204L41.7277 35.7065C42.5533 36.5351 42.2125 37.8019 41.5464 38.6281Z" fill="#000002"/>
<path d="M27.2623 6.94228C29.6613 7.21835 32.4861 8.6715 34.4586 10.6442C36.4496 12.6352 37.9063 15.4886 38.1693 17.9137C38.2469 18.6291 38.8519 19.1593 39.5556 19.1593C39.6059 19.1593 39.6569 19.1565 39.7079 19.1511C40.4745 19.0679 41.0285 18.3791 40.9453 17.6125C40.6126 14.547 38.8836 11.1204 36.4332 8.66983C34.0057 6.24214 30.6141 4.51738 27.5816 4.16834C26.8159 4.07954 26.1232 4.62982 26.035 5.39568C25.9467 6.16153 26.4961 6.85404 27.2623 6.94228Z" fill="#000002"/>
<path d="M25.9579 12.7912C27.2554 12.9407 29.0511 13.9031 30.2274 15.0794C31.4138 16.266 32.3781 18.0788 32.5201 19.3903C32.5978 20.1059 33.2028 20.6361 33.9065 20.6361C33.9567 20.6361 34.0075 20.6333 34.0586 20.6279C34.8252 20.5447 35.3793 19.8559 35.2961 19.0893C35.0534 16.8502 33.5669 14.4701 32.2016 13.1048C30.8486 11.7517 28.4919 10.2723 26.2772 10.017C25.5104 9.92787 24.8186 10.4783 24.7304 11.2442C24.6423 12.0102 25.1919 12.7029 25.9579 12.7912Z" fill="#000002"/>
</g>
<defs>
<clipPath id="clip0">
<rect width="45" height="45" fill="white"/>
</clipPath>
</defs>
</svg>
