<svg width="66" height="66" viewBox="0 0 66 66" fill="none" xmlns="http://www.w3.org/2000/svg">
<path d="M53.966 15.2902C48.8242 10.1378 42.1259 7.11292 34.9336 6.65195V3.86719H37.7696C38.8374 3.86719 39.7032 3.00145 39.7032 1.93359C39.7032 0.865734 38.8374 0 37.7696 0H28.2305C27.1626 0 26.2969 0.865734 26.2969 1.93359C26.2969 3.00145 27.1626 3.86719 28.2305 3.86719H31.0664V6.65195C26.1349 6.96803 21.4361 8.48977 17.3117 11.0765L15.475 9.236C14.581 8.34023 13.3918 7.84704 12.1264 7.84704C10.8609 7.84704 9.67173 8.34036 8.7779 9.236L5.98437 12.0356C4.14552 13.878 4.14552 16.8762 5.98437 18.7187L7.83366 20.5719C4.91483 25.2423 3.35172 30.6476 3.35172 36.2941C3.35172 44.228 6.43515 51.6874 12.0341 57.2979C17.634 62.9095 25.0799 66 33 66C40.9202 66 48.366 62.9095 53.966 57.2979C59.5649 51.6874 62.6483 44.228 62.6483 36.2941C62.6483 28.3601 59.5649 20.9007 53.966 15.2902ZM8.72169 14.7674L11.5153 11.9679C11.7355 11.7474 11.9927 11.7144 12.1265 11.7144C12.2603 11.7144 12.5176 11.7472 12.7378 11.9679L14.139 13.372C13.4123 13.9743 12.7095 14.6136 12.0342 15.2903C11.3608 15.9652 10.7246 16.6673 10.1251 17.3933L8.72169 15.9871C8.38602 15.6508 8.38602 15.1036 8.72169 14.7674ZM33 62.1328C18.7842 62.1328 7.2189 50.5416 7.2189 36.2941C7.2189 22.0466 18.7842 10.4553 33 10.4553C47.2158 10.4553 58.7812 22.0464 58.7812 36.2941C58.7812 50.5417 47.2158 62.1328 33 62.1328Z" fill="white"/>
<path d="M33 14.0799C20.7742 14.0799 10.828 24.0451 10.828 36.2941C10.828 48.543 20.7742 58.5082 33 58.5082C45.2257 58.5082 55.172 48.543 55.172 36.2941C55.172 24.0451 45.2257 14.0799 33 14.0799ZM34.9336 54.5387V52.2786C34.9336 51.2107 34.0678 50.345 33 50.345C31.9321 50.345 31.0664 51.2107 31.0664 52.2786V54.5387C22.5127 53.6344 15.6969 46.8016 14.7967 38.2277H17.0156C18.0835 38.2277 18.9492 37.3619 18.9492 36.2941C18.9492 35.2262 18.0835 34.3605 17.0156 34.3605H14.7969C15.6969 25.7865 22.5127 18.9537 31.0664 18.0495V20.3096C31.0664 21.3774 31.9321 22.2432 33 22.2432C34.0678 22.2432 34.9336 21.3774 34.9336 20.3096V18.0495C43.4873 18.9537 50.3031 25.7865 51.2032 34.3605H48.9843C47.9165 34.3605 47.0508 35.2262 47.0508 36.2941C47.0508 37.3619 47.9165 38.2277 48.9843 38.2277H51.2031C50.3031 46.8016 43.4873 53.6344 34.9336 54.5387Z" fill="white"/>
<path d="M37.7695 35.1781H35.0416V27.3578C35.0416 26.2899 34.1759 25.4242 33.108 25.4242C32.0401 25.4242 31.1744 26.2899 31.1744 27.3578V37.1117C31.1744 38.1796 32.0401 39.0453 33.108 39.0453H37.7695C38.8374 39.0453 39.7031 38.1796 39.7031 37.1117C39.7031 36.0439 38.8374 35.1781 37.7695 35.1781Z" fill="white"/>
</svg>
