<svg width="65" height="65" viewBox="0 0 65 65" fill="none" xmlns="http://www.w3.org/2000/svg">
<g clip-path="url(#clip0)">
<path d="M60.1107 17.636L60.1088 17.5854C60.0805 16.9611 60.0616 16.3005 60.0502 15.5656C59.9972 11.9817 57.1482 9.01712 53.5638 8.81678C46.0904 8.39972 40.3091 5.96282 35.3693 1.14803L35.3272 1.10787C33.716 -0.369449 31.2855 -0.369449 29.6738 1.10787L29.6317 1.14803C24.6919 5.96282 18.9106 8.39972 11.4373 8.81727C7.85332 9.01712 5.00382 11.9817 4.95076 15.5661C4.93985 16.2961 4.92051 16.9566 4.89224 17.5854L4.88927 17.703C4.74397 25.3236 4.56345 34.8079 7.73628 43.4164C9.48089 48.1503 12.1231 52.2654 15.589 55.648C19.5364 59.5002 24.7068 62.5585 30.9562 64.7375C31.1596 64.8084 31.3708 64.8659 31.586 64.9091C31.8895 64.9696 32.195 64.9998 32.5005 64.9998C32.806 64.9998 33.112 64.9696 33.415 64.9091C33.6302 64.8659 33.8429 64.8079 34.0472 64.7365C40.2893 62.5535 45.4541 59.4937 49.3981 55.642C52.8625 52.2584 55.5047 48.1424 57.2508 43.4074C60.4356 34.7732 60.2556 25.271 60.1107 17.636ZM53.6724 42.0878C50.326 51.161 43.4948 57.3921 32.7886 61.1362C32.7504 61.1491 32.7098 61.1605 32.6676 61.1689C32.557 61.1907 32.4445 61.1907 32.3324 61.1684C32.2907 61.16 32.2501 61.1491 32.2124 61.1362C21.4948 57.399 14.6592 51.1714 11.3153 42.0977C8.39088 34.1627 8.55652 25.4565 8.70281 17.7759L8.7038 17.7332C8.73356 17.0732 8.75339 16.3819 8.7643 15.6221C8.78811 14.0308 10.0556 12.7141 11.65 12.6254C15.8791 12.3893 19.5945 11.572 23.0083 10.127C26.4177 8.68387 29.4457 6.64965 32.2644 3.90827C32.4078 3.78726 32.5937 3.78677 32.7366 3.90827C35.5558 6.64965 38.5838 8.68387 41.9927 10.127C45.4065 11.572 49.1219 12.3893 53.3515 12.6254C54.9459 12.7141 56.2134 14.0308 56.2367 15.6226C56.2481 16.3863 56.2679 17.0776 56.2977 17.7332C56.4435 25.4228 56.6052 34.1359 53.6724 42.0878Z" fill="white"/>
<path d="M32.4996 16.3021C23.5673 16.3021 16.3007 23.5691 16.3007 32.501C16.3007 41.4333 23.5673 48.7004 32.4996 48.7004C41.4314 48.7004 48.6985 41.4333 48.6985 32.501C48.6985 23.5691 41.4314 16.3021 32.4996 16.3021ZM32.4996 44.8859C25.6704 44.8859 20.1147 39.3302 20.1147 32.501C20.1147 25.6718 25.6704 20.1161 32.4996 20.1161C39.3283 20.1161 44.884 25.6718 44.884 32.501C44.884 39.3302 39.3283 44.8859 32.4996 44.8859Z" fill="white"/>
<path d="M37.1552 27.472L29.6312 34.9959L27.5891 32.9538C26.8442 32.2089 25.6367 32.2089 24.8918 32.9538C24.1475 33.6986 24.1475 34.9062 24.8918 35.6505L28.2829 39.0416C28.6553 39.414 29.1433 39.6 29.6312 39.6C30.1192 39.6 30.6072 39.414 30.9796 39.0416L39.8525 30.1687C40.5968 29.4239 40.5968 28.2163 39.8525 27.472C39.1076 26.7266 37.9001 26.7266 37.1552 27.472Z" fill="white"/>
</g>
<defs>
<clipPath id="clip0">
<rect width="65" height="65" fill="white"/>
</clipPath>
</defs>
</svg>
