<svg width="59" height="59" viewBox="0 0 59 59" fill="none" xmlns="http://www.w3.org/2000/svg">
<path d="M56.6925 16.2544C57.9652 16.2544 58.9968 15.2227 58.9968 13.95V11.5305C58.9968 5.17256 53.8241 0 47.4662 0C47.4662 0 11.3447 0.00541521 11.2556 0.0159C8.21514 0.12213 5.2945 1.42685 3.18925 3.6328C1.03135 5.89382 -0.0936357 8.83463 0.012249 11.9288C0.0078707 11.9874 0.00556635 45.1652 0.00556635 45.1652C0.00556635 52.7937 6.21186 59 13.8404 59H47.4663C53.8242 59 58.9968 53.8274 58.9968 47.4695V29.974C58.9968 23.6161 53.8242 18.4435 47.4663 18.4435H11.5272C7.82744 18.4435 4.79423 15.5518 4.62175 11.8602C4.53407 9.98312 5.20935 8.19126 6.52306 6.81464C7.85578 5.41821 9.72748 4.61745 11.6581 4.61745C11.7262 4.61745 47.4661 4.60869 47.4661 4.60869C51.2828 4.60869 54.3879 7.7138 54.3879 11.5305V13.95C54.3881 15.2227 55.4198 16.2544 56.6925 16.2544ZM11.5272 23.0522H47.4662C51.2829 23.0522 54.388 26.1573 54.388 29.974V47.4695C54.388 51.2862 51.2829 54.3913 47.4662 54.3913H13.8404C8.75309 54.3913 4.61426 50.2525 4.61426 45.1652V20.7572C6.54161 22.2009 8.9364 23.0522 11.5272 23.0522ZM49.7794 38.7218C49.7794 40.3126 48.4898 41.6022 46.899 41.6022C43.0782 41.4505 43.0792 35.9925 46.899 35.8413C48.4898 35.8413 49.7794 37.131 49.7794 38.7218ZM49.7794 11.5305C49.7794 10.2578 48.7478 9.22614 47.4751 9.22614H11.5273C8.46989 9.34781 8.47219 13.7142 11.5273 13.8348H47.4751C48.7477 13.8348 49.7794 12.8032 49.7794 11.5305Z" fill="white"/>
</svg>
