<svg width="70" height="70" viewBox="0 0 70 70" fill="none" xmlns="http://www.w3.org/2000/svg">
<path d="M40.7437 62.1727C40.1944 62.3209 39.6337 62.453 39.0774 62.5674C37.6219 62.8639 36.6825 64.2844 36.9798 65.7401C36.9965 65.8232 37.0173 65.9022 37.0411 65.9817C37.4382 67.2974 38.7802 68.1182 40.1532 67.8381C40.8173 67.7022 41.4865 67.544 42.1425 67.3674C43.5774 66.9816 44.4271 65.5053 44.0411 64.0704C43.6546 62.6336 42.1786 61.7864 40.7437 62.1727Z" fill="white"/>
<path d="M21.9927 60.6748C21.4732 60.4437 20.9549 60.1934 20.4521 59.9304C19.1345 59.2434 17.5101 59.754 16.823 61.0715C16.4839 61.7195 16.4362 62.4425 16.6322 63.0914C16.8345 63.7606 17.2949 64.3514 17.9627 64.7C18.5629 65.0126 19.1798 65.3116 19.7987 65.5875C21.1549 66.193 22.7458 65.585 23.3518 64.229C23.9578 62.8718 23.3491 61.2819 21.9927 60.6748Z" fill="white"/>
<path d="M31.2429 63.0397C30.6772 62.9942 30.1032 62.93 29.5399 62.8508C28.0687 62.6412 26.7076 63.6649 26.4985 65.1359C26.4418 65.5357 26.4765 65.9266 26.5858 66.289C26.879 67.2605 27.7132 68.0243 28.7845 68.1772C29.4548 68.2719 30.137 68.3479 30.8113 68.4016C32.2926 68.5216 33.5896 67.4176 33.7088 65.9372C33.8279 64.4559 32.7246 63.1589 31.2429 63.0397Z" fill="white"/>
<path d="M49.408 58.1603C48.9407 58.4819 48.4559 58.794 47.968 59.0886C46.8927 59.7364 46.4337 61.0178 46.7799 62.1668C46.8436 62.3773 46.9346 62.5836 47.0532 62.7812C47.8195 64.0537 49.4729 64.4623 50.7455 63.6963C51.3257 63.3464 51.9021 62.9742 52.4577 62.5921C53.6812 61.7498 53.9912 60.0748 53.1488 58.8515C52.3068 57.627 50.6313 57.3182 49.408 58.1603Z" fill="white"/>
<path d="M59.9824 50.8857C58.7775 50.0169 57.0963 50.2894 56.2273 51.4936C55.8954 51.9543 55.5441 52.4113 55.1845 52.8498C54.5944 53.5703 54.4412 54.5043 54.6908 55.3336C54.8402 55.8271 55.1323 56.2845 55.5608 56.6357C56.7101 57.5769 58.4048 57.408 59.346 56.2585C59.7754 55.7352 60.1946 55.1902 60.5901 54.641C61.4592 53.4361 61.1872 51.7553 59.9824 50.8857Z" fill="white"/>
<path d="M63.7476 41.0876C62.3218 40.6711 60.8282 41.4902 60.4123 42.9163C60.2524 43.4625 60.0743 44.011 59.8837 44.5461C59.6813 45.1093 59.6783 45.6966 59.8394 46.2285C60.0772 47.0177 60.6729 47.6868 61.507 47.9856C62.9058 48.4872 64.4452 47.7606 64.9475 46.3626C65.1757 45.7249 65.3876 45.0721 65.5764 44.4223C65.9922 42.997 65.1734 41.5028 63.7476 41.0876Z" fill="white"/>
<path d="M68.7949 23.5616L65.2597 24.66C62.5768 16.4383 56.9279 9.6822 49.2821 5.57895C48.5125 5.16562 47.7318 4.78581 46.9416 4.4368C46.9358 4.43407 46.9312 4.43179 46.9259 4.4283C46.8929 4.41435 46.8581 4.4013 46.826 4.38705C39.8552 1.33691 32.1412 0.758702 24.7466 2.76119C24.6885 2.77256 24.6304 2.78348 24.5731 2.79971C24.3262 2.86706 24.077 2.94002 23.8311 3.01343C23.4275 3.13538 23.0214 3.26674 22.6231 3.4034C22.5759 3.41963 22.5315 3.4398 22.4857 3.458C15.8849 5.74458 10.2637 9.96039 6.25362 15.5932C6.23936 15.6126 6.22328 15.6293 6.20978 15.6485C5.81784 16.199 5.43819 16.7698 5.07961 17.3455C5.05717 17.3824 5.03851 17.4208 5.01712 17.4589C4.65946 18.0389 4.31575 18.6323 3.99025 19.2375C0.666628 25.4315 -0.601268 32.3522 0.263765 39.1884C0.265737 39.204 0.267557 39.2186 0.268922 39.2341C0.270287 39.245 0.272714 39.2564 0.275293 39.2677C0.510397 41.094 0.896575 42.9143 1.43883 44.7123C2.86281 49.4334 5.23888 53.6784 8.50061 57.3303C9.49002 58.4379 11.1907 58.5334 12.2988 57.544C13.4064 56.5543 13.503 54.8532 12.5129 53.7459C10.8846 51.9238 9.52187 49.9224 8.43114 47.7661C8.41946 47.7395 8.40915 47.7124 8.39641 47.6869C8.13992 47.1782 7.89617 46.6567 7.67047 46.1348C7.66925 46.1307 7.66789 46.1282 7.66607 46.1249C7.25532 45.1642 6.8972 44.1752 6.5902 43.1591C3.06469 31.4697 7.5608 19.2379 16.8911 12.399C17.0291 12.2985 17.167 12.1972 17.3064 12.0998C19.7017 10.4104 22.4035 9.07078 25.3603 8.1792C28.336 7.28217 31.3452 6.90539 34.2923 6.99367C34.34 6.9958 34.3862 6.99716 34.4334 6.99853C34.6133 7.00399 34.7926 7.01354 34.9716 7.02355C35.0439 7.02734 35.116 7.03129 35.1882 7.03584C44.378 7.61071 52.8522 12.7147 57.6095 20.7333C57.6121 20.7379 57.6139 20.743 57.6171 20.7476C57.6876 20.8667 57.7565 20.9856 57.8257 21.106C57.8339 21.1195 57.8428 21.1315 57.8507 21.1453C58.7609 22.7414 59.5268 24.4495 60.1224 26.2571L56.5874 27.3561C55.6055 27.6612 55.5089 28.3675 56.3706 28.926L64.0637 33.909C64.9261 34.468 65.9548 34.1479 66.3481 33.1998L69.8627 24.733C70.2556 23.7841 69.776 23.2567 68.7949 23.5616Z" fill="white"/>
<path d="M23.5541 35.073C20.9616 36.9936 19.1933 38.6597 18.2508 40.0709C17.3091 41.482 16.7443 42.9885 16.5588 44.5904H32.7787V40.1836H24.3366C24.8323 39.6962 25.2636 39.3031 25.6309 39.0028C25.9985 38.7008 26.7256 38.175 27.8144 37.4226C29.6458 36.1307 30.9093 34.9449 31.6041 33.8649C32.2983 32.7858 32.6458 31.6531 32.6458 30.4673C32.6458 29.3526 32.3429 28.3457 31.7368 27.447C31.1303 26.5492 30.298 25.883 29.2408 25.4494C28.1837 25.0163 26.7035 24.799 24.8006 24.799C22.9783 24.799 21.5518 25.0272 20.5204 25.4837C19.4902 25.9393 18.6909 26.5938 18.125 27.447C17.5585 28.3019 17.1696 29.4897 16.9568 31.011L22.3724 31.4489C22.5227 30.3524 22.8173 29.5866 23.2549 29.1533C23.6934 28.7196 24.2566 28.5025 24.9478 28.5025C25.6111 28.5025 26.1621 28.7131 26.5999 29.1335C27.0376 29.5531 27.2569 30.0601 27.2569 30.6534C27.2569 31.2023 27.0358 31.7816 26.593 32.3925C26.1506 33.0029 25.1374 33.8969 23.5541 35.073Z" fill="white"/>
<path d="M49.0915 44.5905V40.9534H51.5334V36.7582H49.0915V24.7991H44.3794L34.5308 36.5069V40.9534H44.3794V44.5905H49.0915ZM39.176 36.7582L44.3794 30.6355V36.7582H39.176Z" fill="white"/>
</svg>
