<svg width="61" height="61" viewBox="0 0 61 61" fill="none" xmlns="http://www.w3.org/2000/svg">
<g clip-path="url(#clip0)">
<path d="M47.7597 2.86208L47.7597 2.8621C51.1762 6.19711 51.2355 11.7682 47.9425 15.1832L35.9895 27.5788L35.6296 27.9521L35.2697 27.5788L23.3167 15.1832C20.0237 11.7682 20.0831 6.19711 23.4996 2.8621L23.4996 2.86208C25.0619 1.33721 27.0625 0.605682 29.0726 0.605682C31.3324 0.605682 33.6084 1.52913 35.303 3.28653L35.3035 3.28708L35.6302 3.62687L35.956 3.28894L47.7597 2.86208ZM47.7597 2.86208C46.1974 1.33721 44.1968 0.605682 42.1866 0.605682M47.7597 2.86208L42.1866 0.605682M42.1866 0.605682C39.9269 0.605682 37.6509 1.52909 35.9563 3.2887L42.1866 0.605682ZM45.7383 12.9496L35.6296 23.4327L25.521 12.9496C24.5144 11.9058 23.9706 10.5164 23.9918 9.03188C24.0131 7.5483 24.5988 6.17713 25.6383 5.16289L25.6388 5.16239C26.5465 4.27427 27.7637 3.78304 29.0726 3.78304C30.5601 3.78304 32.0311 4.41517 33.0964 5.5198C33.0965 5.51989 33.0965 5.51997 33.0966 5.52005L33.7827 6.23368L33.7832 6.23423L35.2676 7.77362L35.6275 8.14687L35.9875 7.77362L37.4719 6.23422L38.1584 5.52223C39.226 4.41511 40.6951 3.78304 42.1845 3.78304C43.4934 3.78304 44.7108 4.27422 45.6208 5.16276L45.6209 5.16289C46.6604 6.17713 47.2462 7.5483 47.2674 9.03189C47.2887 10.5164 46.7448 11.9058 45.7383 12.9496Z" fill="white" stroke="white"/>
<path d="M59.4313 33.136L59.4305 33.1355C57.3669 31.6851 54.9732 32.137 52.9674 33.3376C52.4482 33.6484 51.3679 34.5025 50.0777 35.5695C48.7723 36.6491 47.2137 37.9792 45.7171 39.2717C44.2201 40.5645 42.7833 41.8212 41.7209 42.7546C41.1897 43.2214 40.7519 43.6073 40.447 43.8767L40.1117 44.173L29.4674 44.1752C29.4674 44.1752 29.4673 44.1752 29.4673 44.1752C29.4 44.1751 29.2604 44.1252 29.1177 43.9736C28.9772 43.8242 28.9176 43.6637 28.9176 43.5669C28.9176 43.2308 29.2085 42.9782 29.4674 42.9782H36.0958C37.3602 42.9782 38.7004 42.5532 39.7339 41.7387C40.7773 40.9164 41.513 39.6897 41.513 38.1235C41.513 36.4771 40.7829 35.2454 39.7282 34.4386C38.688 33.6429 37.347 33.2688 36.0958 33.2688C34.0827 33.2688 32.8796 33.2732 32.1793 33.2775C31.8291 33.2797 31.6045 33.2819 31.467 33.2835C31.3982 33.2844 31.3512 33.285 31.3211 33.2855L31.288 33.2861L31.2827 33.2862C29.6673 33.286 28.1555 33.1785 27.0225 32.5499L27.0225 32.5498L27.0146 32.5456C25.263 31.6147 23.2466 31.0893 21.0984 31.0893C17.4923 31.0893 14.2573 32.5806 12.0349 34.9401L0.732077 46.4809L0.39209 46.8281L0.729372 47.1778L13.3269 60.242L13.6868 60.6152L14.0468 60.242L18.0985 56.0402H39.1486C41.3928 56.0402 43.5561 55.1858 45.2277 53.6456L45.2491 53.6259L45.268 53.6038L59.647 36.8764C60.7208 35.8617 60.6737 34.0126 59.4313 33.136ZM54.6574 36.0043C55.3729 35.5981 56.1131 35.35 56.7703 35.4126L43.0517 51.3715C41.959 52.3339 40.5771 52.8607 39.1486 52.8607H39.1485L16.8697 52.865L16.6508 52.865L16.5024 53.0259L13.6789 56.0853L4.76791 46.8443L14.2561 37.1561L14.2562 37.1561L14.2632 37.1487C15.9806 35.3224 18.4712 34.2666 21.0984 34.2666C22.6819 34.2666 24.235 34.6461 25.5509 35.3408C27.3463 36.3353 29.4156 36.4592 31.2877 36.4592V36.4593L31.2985 36.4591L31.2986 36.4591L31.2987 36.4591L31.3002 36.4591L31.307 36.4589L31.3381 36.4584C31.3671 36.4579 31.4135 36.4573 31.4818 36.4565C31.6187 36.4548 31.8433 36.4527 32.1934 36.4505C32.8935 36.4462 34.0945 36.4418 36.0958 36.4418C36.0956 36.4418 36.0958 36.4418 36.0963 36.4418C36.1187 36.4422 36.7331 36.4532 37.3322 36.6884C37.6354 36.8074 37.9058 36.9728 38.0977 37.1963C38.2814 37.4101 38.4134 37.6996 38.4134 38.1192C38.4134 38.6422 38.1267 39.0466 37.6617 39.3431C37.1871 39.6459 36.5777 39.7965 36.0958 39.7965H29.2931C28.4387 39.7965 27.5572 40.1172 26.8881 40.7801C26.2132 41.4487 25.7844 42.4349 25.7844 43.7084C25.7844 45.6865 27.332 47.3286 29.2931 47.3286H29.2932L41.0467 47.3264L41.2328 47.3264L41.3736 47.2047L41.0466 46.8264C41.3736 47.2047 41.3737 47.2046 41.3738 47.2045L41.3742 47.2042L41.3759 47.2027L41.3825 47.1969L41.409 47.174L41.5126 47.0846L41.9066 46.7445C42.2465 46.4512 42.7333 46.0315 43.3206 45.5261C44.4953 44.5153 46.0717 43.1617 47.6791 41.7906C49.2868 40.4193 50.9243 39.0314 52.2216 37.9515C52.8705 37.4113 53.4324 36.9497 53.8621 36.6063C54.3094 36.2488 54.5755 36.0508 54.6574 36.0043Z" fill="white" stroke="white"/>
</g>
<defs>
<clipPath id="clip0">
<rect width="61" height="61" fill="white"/>
</clipPath>
</defs>
</svg>
