<svg width="66" height="66" viewBox="0 0 66 66" fill="none" xmlns="http://www.w3.org/2000/svg">
<path d="M64.9292 32.8849L58.916 13.6457C58.7097 12.9857 58.1022 12.5972 57.4913 12.7342L51.2284 14.1411L40.2202 10.4639C38.6314 9.933 36.8902 9.61732 34.927 10.8903L32.9652 12.1623L31.0032 10.8903C29.0398 9.61732 27.2987 9.93314 25.71 10.464L14.7409 14.1283L9.04584 12.4414C8.4266 12.258 7.7836 12.63 7.55748 13.3031L1.08066 32.5803C0.864532 33.2234 1.09503 33.9477 1.62515 34.2914L7.00973 37.7823C6.62774 38.7799 6.55449 39.8874 6.80974 40.9571C7.10986 42.2151 7.8256 43.2648 8.82497 43.9127C9.61696 44.4262 10.4953 44.6256 11.3443 44.5463C11.3794 46.1879 12.1526 47.772 13.5088 48.6514C14.768 49.4679 16.2444 49.4915 17.4762 48.8612C17.828 49.8184 18.4528 50.6575 19.3114 51.214C20.3108 51.862 21.4781 52.0332 22.5985 51.6961C22.9277 51.597 23.2411 51.4576 23.5339 51.2816C23.906 52.1817 24.512 52.9296 25.2901 53.4339C25.9708 53.8753 26.7147 54.085 27.4493 54.085C28.4892 54.0848 29.5098 53.6639 30.3053 52.8857L34.1053 55.3493C34.7858 55.7904 35.5298 56.0001 36.2643 56C37.763 56 39.2226 55.1273 40.0242 53.5681C40.356 52.9227 40.5408 52.2267 40.5902 51.5289C41.4948 51.9848 42.5052 52.0762 43.4803 51.7829C44.6006 51.4458 45.5353 50.642 46.1123 49.5197C46.5099 48.7462 46.6963 47.9 46.6918 47.0655C48.3604 47.287 50.0679 46.4025 50.96 44.6672C51.3016 44.0027 51.4875 43.284 51.5301 42.5653C53.4587 43.3309 55.6661 42.4693 56.7253 40.4094C57.1848 39.5157 57.3623 38.5246 57.2891 37.5668L64.188 34.664C64.8252 34.3961 65.1544 33.6054 64.9292 32.8849ZM10.0751 41.4817C9.65396 41.2087 9.35196 40.7644 9.22459 40.2306C9.09709 39.6969 9.16097 39.1426 9.40421 38.6696L11.1495 35.2749C11.3926 34.802 11.7882 34.4627 12.2636 34.3199C12.7388 34.1768 13.2326 34.2485 13.6536 34.5216C14.5275 35.0882 14.8292 36.3482 14.3261 37.3306L12.5782 40.73C12.5781 40.7303 12.5779 40.7304 12.5778 40.7307C12.0718 41.7115 10.9492 42.0483 10.0751 41.4817ZM17.263 45.4667C16.7575 46.4494 15.6347 46.7876 14.7589 46.2202C13.8836 45.6527 13.5827 44.3912 14.0878 43.4084L14.7414 42.1372C14.7415 42.1369 14.7417 42.1368 14.7418 42.1366L16.491 38.7344C16.4912 38.7341 16.4914 38.7338 16.4915 38.7336L16.4922 38.7322C16.4923 38.732 16.4923 38.732 16.4924 38.7319L18.0355 35.7303C18.2786 35.2574 18.6743 34.9182 19.1495 34.7752C19.625 34.6322 20.1184 34.7039 20.5396 34.9771C20.9607 35.2501 21.2629 35.6943 21.3902 36.228C21.5176 36.7617 21.4539 37.316 21.2106 37.7889L20.7505 38.6836C20.7496 38.6851 20.7489 38.6867 20.748 38.6882C20.7479 38.6884 20.7479 38.6886 20.7478 38.6888L17.7256 44.5669C17.7256 44.5671 17.7255 44.5671 17.7255 44.5672L17.7253 44.5675C17.7251 44.5679 17.7248 44.5685 17.7246 44.5689L17.263 45.4667ZM23.0656 48.0295C22.8225 48.5023 22.427 48.8414 21.9516 48.9844C21.4761 49.1275 20.9825 49.0558 20.5615 48.7827C19.6871 48.2158 19.3859 46.9563 19.8891 45.9737L19.8904 45.9713C19.8905 45.9712 19.8905 45.971 19.8906 45.971C19.8909 45.9706 19.891 45.9701 19.8913 45.9695L22.9125 40.093C22.9127 40.0926 22.913 40.0923 22.9131 40.0919C23.4186 39.1089 24.5418 38.7709 25.4172 39.3385C25.8383 39.6116 26.1403 40.0558 26.2678 40.5895C26.3952 41.1232 26.3315 41.6775 26.0882 42.1504L25.4498 43.3921C25.4497 43.3922 25.4496 43.3925 25.4495 43.3926L23.7044 46.7869C23.7044 46.787 23.7042 46.7871 23.7041 46.7873C23.7034 46.7887 23.7026 46.7901 23.7019 46.7915L23.0656 48.0295ZM26.5403 51.0028C26.1192 50.7298 25.8171 50.2855 25.6897 49.7518C25.5623 49.2182 25.6261 48.6638 25.8693 48.1908L27.6147 44.7962C28.1202 43.8133 29.2429 43.4752 30.1188 44.0427C30.994 44.6102 31.295 45.8717 30.7898 46.8547L29.0444 50.2494C28.5391 51.2324 27.4157 51.5704 26.5403 51.0028ZM37.8595 52.1647C37.354 53.1479 36.2304 53.4855 35.3554 52.9182L31.7582 50.586L32.9548 48.2585C33.1762 47.8278 33.3318 47.3744 33.4258 46.9132L37.1887 49.3529C37.1889 49.3529 37.1889 49.3531 37.189 49.3531C37.1891 49.3531 37.1891 49.3531 37.1892 49.3532L37.1927 49.3554C38.0647 49.9243 38.3641 51.1834 37.8595 52.1647ZM56.37 34.9557C56.0401 34.4869 55.6276 34.079 55.1395 33.7626C54.6825 33.4663 53.021 32.345 50.0604 30.3347C49.4696 29.9335 48.7012 30.146 48.3439 30.8095C47.9868 31.4729 48.176 32.3359 48.7668 32.7369C51.7421 34.7572 53.4177 35.888 53.8895 36.1939C54.7649 36.7614 55.0659 38.0229 54.5605 39.0059C54.055 39.989 52.9314 40.3269 52.0564 39.7595L49.3783 38.023C49.3775 38.0226 49.3767 38.022 49.3759 38.0215L49.3754 38.0212L39.4277 31.5719C38.8297 31.184 38.0654 31.4143 37.7202 32.0856C37.375 32.757 37.5799 33.6155 38.1777 34.003L48.1244 40.4518C48.1245 40.4519 48.1248 40.4521 48.1249 40.4522C48.1252 40.4524 48.1252 40.4524 48.1254 40.4525L48.128 40.4542C49.0004 41.0228 49.2997 42.2823 48.7952 43.2638C48.2897 44.2468 47.1667 44.5848 46.2912 44.0173L44.5309 42.8761C44.5298 42.8754 44.5288 42.8747 44.5278 42.874L44.5274 42.8738L35.7945 37.212C35.1964 36.8241 34.4321 37.0543 34.087 37.7257C33.7418 38.3971 33.9466 39.2556 34.5445 39.6431L43.2767 45.3044C43.2768 45.3046 43.2769 45.3046 43.2771 45.3047C44.1519 45.8724 44.4526 47.1336 43.9474 48.1164C43.7043 48.5893 43.3087 48.9284 42.8335 49.0715C42.3583 49.2145 41.8645 49.1429 41.4433 48.8699L38.4437 46.9251C38.4422 46.9241 38.441 46.9233 38.4394 46.9222L38.4391 46.922L32.9304 43.3505C32.5638 42.6514 32.0377 42.0455 31.3685 41.6117C30.5704 41.0943 29.6858 40.8951 28.8304 40.9793C28.8197 40.6068 28.7706 40.2325 28.6823 39.8628C28.3822 38.6048 27.6663 37.5552 26.667 36.9072C25.8082 36.3505 24.848 36.1625 23.9342 36.299C23.9109 36.0322 23.8678 35.7656 23.8047 35.5012C23.5046 34.2432 22.7887 33.1935 21.7892 32.5455C19.9561 31.3568 17.663 31.8487 16.3333 33.5915C15.9764 32.9924 15.4955 32.4742 14.9034 32.0903C13.9041 31.4423 12.7364 31.2709 11.6163 31.6081C10.496 31.9451 9.56134 32.7489 8.98422 33.8712L8.23247 35.3334L3.79413 32.4561L9.49834 15.4788L14.4422 16.9431C14.6642 17.0088 14.8977 17.0046 15.1174 16.9313L26.4226 13.1547C27.7379 12.7154 28.6582 12.6118 29.7529 13.3215L30.4648 13.7831L26.0858 16.6222C24.0016 17.9735 23.285 20.9771 24.4883 23.3177C25.6525 25.582 28.1851 26.372 30.3793 25.1546C31.559 24.5002 33.275 23.6338 34.5684 23.0808C35.5126 23.7196 37.6302 25.1609 39.1421 26.1898C39.733 26.5918 40.5015 26.3798 40.859 25.7169C41.2167 25.0539 41.0282 24.1907 40.438 23.7889C38.9842 22.7995 37.7139 21.9351 36.8054 21.3182C36.3501 21.0091 35.9855 20.7619 35.7341 20.5919C35.1805 20.2181 35.0491 20.1293 34.6975 20.1293C34.5574 20.1293 34.4184 20.1557 34.286 20.2075C32.8075 20.7862 30.6505 21.8728 29.2722 22.6374C28.2754 23.1899 27.1498 22.8791 26.6535 21.9138C26.1393 20.9137 26.4455 19.6304 27.3359 19.0531L36.177 13.3213C37.2717 12.6115 38.1922 12.7152 39.5074 13.1546L50.8126 16.9312C51.008 16.9964 51.2145 17.0071 51.4143 16.9622L56.9166 15.7261L62.1648 32.5174L56.37 34.9557Z" fill="white" stroke="white"/>
<path d="M44.906 27.3617H44.905C44.2251 27.3617 43.6742 27.9388 43.6742 28.6508C43.6742 29.3627 44.2259 29.9398 44.906 29.9398C45.5861 29.9398 46.1373 29.3627 46.1373 28.6508C46.1373 27.9388 45.5859 27.3617 44.906 27.3617Z" fill="white" stroke="white" stroke-width="2"/>
</svg>
